<svg xmlns="http://www.w3.org/2000/svg" width="1100" height="900" viewBox="0 0 1100 900">
  <defs>
    <!-- 定义渐变和滤镜 -->
    <linearGradient id="entityGradient" x1="0%" y1="0%" x2="0%" y2="100%">
      <stop offset="0%" stop-color="#ffe7ba" />
      <stop offset="100%" stop-color="#ffd591" />
    </linearGradient>
    <linearGradient id="relationGradient" x1="0%" y1="0%" x2="0%" y2="100%">
      <stop offset="0%" stop-color="#d9f7be" />
      <stop offset="100%" stop-color="#b7eb8f" />
    </linearGradient>
    <linearGradient id="adminRelationGradient" x1="0%" y1="0%" x2="0%" y2="100%">
      <stop offset="0%" stop-color="#ffd6e7" />
      <stop offset="100%" stop-color="#ffadd2" />
    </linearGradient>
    <filter id="shadow" x="-10%" y="-10%" width="120%" height="120%">
      <feDropShadow dx="2" dy="2" stdDeviation="2" flood-opacity="0.3" />
    </filter>
  </defs>
  
  <!-- 标题 -->
  <text x="550" y="40" font-family="Microsoft YaHei, 微软雅黑" font-size="24" font-weight="bold" text-anchor="middle">健身房管理系统实体关系图</text>
  
  <!-- 实体定义（矩形） - 调整排列以减少交叉 -->
  <!-- 会员实体（中央位置） -->
  <rect x="500" y="320" width="100" height="60" rx="5" ry="5" fill="url(#entityGradient)" stroke="#fa8c16" stroke-width="2" filter="url(#shadow)" />
  <text x="550" y="355" font-family="Microsoft YaHei, 微软雅黑" font-size="18" font-weight="bold" text-anchor="middle">会员</text>
  
  <!-- 教练实体（左上） -->
  <rect x="300" y="150" width="100" height="60" rx="5" ry="5" fill="url(#entityGradient)" stroke="#fa8c16" stroke-width="2" filter="url(#shadow)" />
  <text x="350" y="185" font-family="Microsoft YaHei, 微软雅黑" font-size="18" font-weight="bold" text-anchor="middle">教练</text>
  
  <!-- 课程实体（中上） -->
  <rect x="500" y="150" width="100" height="60" rx="5" ry="5" fill="url(#entityGradient)" stroke="#fa8c16" stroke-width="2" filter="url(#shadow)" />
  <text x="550" y="185" font-family="Microsoft YaHei, 微软雅黑" font-size="18" font-weight="bold" text-anchor="middle">课程</text>
  
  <!-- 课程类别实体（右上） -->
  <rect x="700" y="150" width="100" height="60" rx="5" ry="5" fill="url(#entityGradient)" stroke="#fa8c16" stroke-width="2" filter="url(#shadow)" />
  <text x="750" y="185" font-family="Microsoft YaHei, 微软雅黑" font-size="18" font-weight="bold" text-anchor="middle">课程类别</text>
  
  <!-- 课程排期实体（中间偏上） -->
  <rect x="500" y="490" width="100" height="60" rx="5" ry="5" fill="url(#entityGradient)" stroke="#fa8c16" stroke-width="2" filter="url(#shadow)" />
  <text x="550" y="525" font-family="Microsoft YaHei, 微软雅黑" font-size="18" font-weight="bold" text-anchor="middle">课程排期</text>
  
  <!-- 课程预约实体（左下） -->
  <rect x="300" y="640" width="100" height="60" rx="5" ry="5" fill="url(#entityGradient)" stroke="#fa8c16" stroke-width="2" filter="url(#shadow)" />
  <text x="350" y="675" font-family="Microsoft YaHei, 微软雅黑" font-size="18" font-weight="bold" text-anchor="middle">课程预约</text>
  
  <!-- 器材实体（左中） -->
  <rect x="220" y="320" width="100" height="60" rx="5" ry="5" fill="url(#entityGradient)" stroke="#fa8c16" stroke-width="2" filter="url(#shadow)" />
  <text x="270" y="355" font-family="Microsoft YaHei, 微软雅黑" font-size="18" font-weight="bold" text-anchor="middle">器材</text>
  
  <!-- 器材类别实体（左下） -->
  <rect x="130" y="490" width="100" height="60" rx="5" ry="5" fill="url(#entityGradient)" stroke="#fa8c16" stroke-width="2" filter="url(#shadow)" />
  <text x="180" y="525" font-family="Microsoft YaHei, 微软雅黑" font-size="18" font-weight="bold" text-anchor="middle">器材类别</text>
  
  <!-- 商品实体（右中） -->
  <rect x="780" y="320" width="100" height="60" rx="5" ry="5" fill="url(#entityGradient)" stroke="#fa8c16" stroke-width="2" filter="url(#shadow)" />
  <text x="830" y="355" font-family="Microsoft YaHei, 微软雅黑" font-size="18" font-weight="bold" text-anchor="middle">商品</text>
  
  <!-- 商品类别实体（右下） -->
  <rect x="870" y="490" width="100" height="60" rx="5" ry="5" fill="url(#entityGradient)" stroke="#fa8c16" stroke-width="2" filter="url(#shadow)" />
  <text x="920" y="525" font-family="Microsoft YaHei, 微软雅黑" font-size="18" font-weight="bold" text-anchor="middle">商品类别</text>
  
  <!-- 商品交易实体（右下） -->
  <rect x="700" y="640" width="100" height="60" rx="5" ry="5" fill="url(#entityGradient)" stroke="#fa8c16" stroke-width="2" filter="url(#shadow)" />
  <text x="750" y="675" font-family="Microsoft YaHei, 微软雅黑" font-size="18" font-weight="bold" text-anchor="middle">商品交易</text>
  
  <!-- 业务关系定义（菱形） -->
  <!-- 教练-课程关系 -->
  <polygon points="420,180 440,160 460,180 440,200" fill="url(#relationGradient)" stroke="#52c41a" stroke-width="2" filter="url(#shadow)" />
  <text x="440" y="185" font-family="Microsoft YaHei, 微软雅黑" font-size="16" text-anchor="middle">讲授</text>
  
  <!-- 课程-课程类别关系 -->
  <polygon points="620,180 640,160 660,180 640,200" fill="url(#relationGradient)" stroke="#52c41a" stroke-width="2" filter="url(#shadow)" />
  <text x="640" y="185" font-family="Microsoft YaHei, 微软雅黑" font-size="16" text-anchor="middle">属于</text>
  
  <!-- 课程-课程排期关系 -->
  <polygon points="550,350 570,330 590,350 570,370" fill="url(#relationGradient)" stroke="#52c41a" stroke-width="2" filter="url(#shadow)" />
  <text x="570" y="355" font-family="Microsoft YaHei, 微软雅黑" font-size="16" text-anchor="middle">排期</text>
  
  <!-- 课程排期-课程预约关系 -->
  <polygon points="380,570 400,550 420,570 400,590" fill="url(#relationGradient)" stroke="#52c41a" stroke-width="2" filter="url(#shadow)" />
  <text x="400" y="575" font-family="Microsoft YaHei, 微软雅黑" font-size="16" text-anchor="middle">预约</text>
  
  <!-- 器材-器材类别关系 -->
  <polygon points="180,410 200,390 220,410 200,430" fill="url(#relationGradient)" stroke="#52c41a" stroke-width="2" filter="url(#shadow)" />
  <text x="200" y="415" font-family="Microsoft YaHei, 微软雅黑" font-size="16" text-anchor="middle">分类</text>
  
  <!-- 商品-商品类别关系 -->
  <polygon points="820,410 840,390 860,410 840,430" fill="url(#relationGradient)" stroke="#52c41a" stroke-width="2" filter="url(#shadow)" />
  <text x="840" y="415" font-family="Microsoft YaHei, 微软雅黑" font-size="16" text-anchor="middle">属于</text>
  
  <!-- 商品-商品交易关系 -->
  <polygon points="750,520 770,500 790,520 770,540" fill="url(#relationGradient)" stroke="#52c41a" stroke-width="2" filter="url(#shadow)" />
  <text x="770" y="525" font-family="Microsoft YaHei, 微软雅黑" font-size="16" text-anchor="middle">交易</text>
  
  <!-- 会员-课程预约关系 -->
  <polygon points="400,350 420,330 440,350 420,370" fill="url(#relationGradient)" stroke="#52c41a" stroke-width="2" filter="url(#shadow)" />
  <text x="420" y="355" font-family="Microsoft YaHei, 微软雅黑" font-size="16" text-anchor="middle">预约</text>
  
  <!-- 会员-商品交易关系 -->
  <polygon points="600,350 620,330 640,350 620,370" fill="url(#relationGradient)" stroke="#52c41a" stroke-width="2" filter="url(#shadow)" />
  <text x="620" y="355" font-family="Microsoft YaHei, 微软雅黑" font-size="16" text-anchor="middle">购买</text>
  
  <!-- 管理关系定义（特殊颜色菱形） -->
  <!-- 会员(管理员)-教练管理关系 -->
  <polygon points="400,235 420,215 440,235 420,255" fill="url(#adminRelationGradient)" stroke="#eb2f96" stroke-width="2" filter="url(#shadow)" />
  <text x="420" y="240" font-family="Microsoft YaHei, 微软雅黑" font-size="14" text-anchor="middle">管理</text>
  <text x="420" y="205" font-family="Microsoft YaHei, 微软雅黑" font-size="10" text-anchor="middle" fill="#eb2f96">[role='admin']</text>
  
  <!-- 会员(管理员)-课程管理关系 -->
  <polygon points="500,235 520,215 540,235 520,255" fill="url(#adminRelationGradient)" stroke="#eb2f96" stroke-width="2" filter="url(#shadow)" />
  <text x="520" y="240" font-family="Microsoft YaHei, 微软雅黑" font-size="14" text-anchor="middle">管理</text>
  <text x="520" y="205" font-family="Microsoft YaHei, 微软雅黑" font-size="10" text-anchor="middle" fill="#eb2f96">[role='admin']</text>
  
  <!-- 会员(管理员)-课程类别管理关系 -->
  <polygon points="600,235 620,215 640,235 620,255" fill="url(#adminRelationGradient)" stroke="#eb2f96" stroke-width="2" filter="url(#shadow)" />
  <text x="620" y="240" font-family="Microsoft YaHei, 微软雅黑" font-size="14" text-anchor="middle">管理</text>
  <text x="620" y="205" font-family="Microsoft YaHei, 微软雅黑" font-size="10" text-anchor="middle" fill="#eb2f96">[role='admin']</text>
  
  <!-- 会员(管理员)-器材管理关系 -->
  <polygon points="350,290 370,270 390,290 370,310" fill="url(#adminRelationGradient)" stroke="#eb2f96" stroke-width="2" filter="url(#shadow)" />
  <text x="370" y="295" font-family="Microsoft YaHei, 微软雅黑" font-size="14" text-anchor="middle">管理</text>
  <text x="370" y="260" font-family="Microsoft YaHei, 微软雅黑" font-size="10" text-anchor="middle" fill="#eb2f96">[role='admin']</text>
  
  <!-- 会员(管理员)-商品管理关系 -->
  <polygon points="650,290 670,270 690,290 670,310" fill="url(#adminRelationGradient)" stroke="#eb2f96" stroke-width="2" filter="url(#shadow)" />
  <text x="670" y="295" font-family="Microsoft YaHei, 微软雅黑" font-size="14" text-anchor="middle">管理</text>
  <text x="670" y="260" font-family="Microsoft YaHei, 微软雅黑" font-size="10" text-anchor="middle" fill="#eb2f96">[role='admin']</text>
  
  <!-- 会员(管理员)-课程预约管理关系 -->
  <polygon points="450,435 470,415 490,435 470,455" fill="url(#adminRelationGradient)" stroke="#eb2f96" stroke-width="2" filter="url(#shadow)" />
  <text x="470" y="440" font-family="Microsoft YaHei, 微软雅黑" font-size="14" text-anchor="middle">管理</text>
  <text x="470" y="405" font-family="Microsoft YaHei, 微软雅黑" font-size="10" text-anchor="middle" fill="#eb2f96">[role='admin']</text>
  
  <!-- 会员(管理员)-商品交易管理关系 -->
  <polygon points="650,435 670,415 690,435 670,455" fill="url(#adminRelationGradient)" stroke="#eb2f96" stroke-width="2" filter="url(#shadow)" />
  <text x="670" y="440" font-family="Microsoft YaHei, 微软雅黑" font-size="14" text-anchor="middle">管理</text>
  <text x="670" y="405" font-family="Microsoft YaHei, 微软雅黑" font-size="10" text-anchor="middle" fill="#eb2f96">[role='admin']</text>
  
  <!-- 关系连线 -->
  <!-- 教练-课程关系连线 -->
  <line x1="400" y1="180" x2="420" y2="180" stroke="#52c41a" stroke-width="2" />
  <line x1="460" y1="180" x2="500" y2="180" stroke="#52c41a" stroke-width="2" />
  <text x="410" y="170" font-family="Microsoft YaHei, 微软雅黑" font-size="14" text-anchor="middle">1</text>
  <text x="480" y="170" font-family="Microsoft YaHei, 微软雅黑" font-size="14" text-anchor="middle">n</text>
  
  <!-- 课程-课程类别关系连线 -->
  <line x1="600" y1="180" x2="620" y2="180" stroke="#52c41a" stroke-width="2" />
  <line x1="660" y1="180" x2="700" y2="180" stroke="#52c41a" stroke-width="2" />
  <text x="610" y="170" font-family="Microsoft YaHei, 微软雅黑" font-size="14" text-anchor="middle">n</text>
  <text x="690" y="170" font-family="Microsoft YaHei, 微软雅黑" font-size="14" text-anchor="middle">1</text>
  
  <!-- 课程-课程排期关系连线 -->
  <line x1="550" y1="210" x2="550" y2="330" stroke="#52c41a" stroke-width="2" />
  <line x1="550" y1="370" x2="550" y2="490" stroke="#52c41a" stroke-width="2" />
  <text x="560" y="230" font-family="Microsoft YaHei, 微软雅黑" font-size="14" text-anchor="middle">1</text>
  <text x="560" y="470" font-family="Microsoft YaHei, 微软雅黑" font-size="14" text-anchor="middle">n</text>
  
  <!-- 课程排期-课程预约关系连线 -->
  <polyline points="500,520 450,520 400,550" stroke="#52c41a" stroke-width="2" fill="none" />
  <line x1="400" y1="590" x2="350" y2="640" stroke="#52c41a" stroke-width="2" />
  <text x="480" y="510" font-family="Microsoft YaHei, 微软雅黑" font-size="14" text-anchor="middle">1</text>
  <text x="370" y="630" font-family="Microsoft YaHei, 微软雅黑" font-size="14" text-anchor="middle">n</text>
  
  <!-- 器材-器材类别关系连线 -->
  <line x1="220" y1="350" x2="200" y2="390" stroke="#52c41a" stroke-width="2" />
  <line x1="200" y1="430" x2="180" y2="490" stroke="#52c41a" stroke-width="2" />
  <text x="210" y="350" font-family="Microsoft YaHei, 微软雅黑" font-size="14" text-anchor="middle">n</text>
  <text x="170" y="470" font-family="Microsoft YaHei, 微软雅黑" font-size="14" text-anchor="middle">1</text>
  
  <!-- 商品-商品类别关系连线 -->
  <line x1="880" y1="350" x2="840" y2="390" stroke="#52c41a" stroke-width="2" />
  <line x1="840" y1="430" x2="920" y2="490" stroke="#52c41a" stroke-width="2" />
  <text x="870" y="370" font-family="Microsoft YaHei, 微软雅黑" font-size="14" text-anchor="middle">n</text>
  <text x="900" y="470" font-family="Microsoft YaHei, 微软雅黑" font-size="14" text-anchor="middle">1</text>
  
  <!-- 商品-商品交易关系连线 -->
  <polyline points="830,380 830,500 790,520" stroke="#52c41a" stroke-width="2" fill="none" />
  <line x1="770" y1="540" x2="750" y2="640" stroke="#52c41a" stroke-width="2" />
  <text x="820" y="400" font-family="Microsoft YaHei, 微软雅黑" font-size="14" text-anchor="middle">1</text>
  <text x="740" y="620" font-family="Microsoft YaHei, 微软雅黑" font-size="14" text-anchor="middle">n</text>
  
  <!-- 会员-课程预约关系连线 -->
  <line x1="500" y1="350" x2="440" y2="350" stroke="#52c41a" stroke-width="2" />
  <polyline points="400,350 350,350 350,640" stroke="#52c41a" stroke-width="2" fill="none" />
  <text x="480" y="340" font-family="Microsoft YaHei, 微软雅黑" font-size="14" text-anchor="middle">1</text>
  <text x="340" y="620" font-family="Microsoft YaHei, 微软雅黑" font-size="14" text-anchor="middle">n</text>
  
  <!-- 会员-商品交易关系连线 -->
  <line x1="600" y1="350" x2="600" y2="350" stroke="#52c41a" stroke-width="2" />
  <polyline points="640,350 750,350 750,640" stroke="#52c41a" stroke-width="2" fill="none" />
  <text x="620" y="340" font-family="Microsoft YaHei, 微软雅黑" font-size="14" text-anchor="middle">1</text>
  <text x="760" y="620" font-family="Microsoft YaHei, 微软雅黑" font-size="14" text-anchor="middle">n</text>
  
  <!-- 管理关系连线 -->
  <!-- 会员-教练管理关系连线 -->
  <line x1="500" y1="320" x2="420" y2="255" stroke="#eb2f96" stroke-width="2" />
  <line x1="420" y1="215" x2="350" y2="210" stroke="#eb2f96" stroke-width="2" />
  <text x="460" y="300" font-family="Microsoft YaHei, 微软雅黑" font-size="12" text-anchor="middle">1</text>
  <text x="380" y="210" font-family="Microsoft YaHei, 微软雅黑" font-size="12" text-anchor="middle">n</text>
  
  <!-- 会员-课程管理关系连线 -->
  <line x1="520" y1="320" x2="520" y2="255" stroke="#eb2f96" stroke-width="2" />
  <line x1="520" y1="215" x2="520" y2="210" stroke="#eb2f96" stroke-width="2" />
  <text x="530" y="300" font-family="Microsoft YaHei, 微软雅黑" font-size="12" text-anchor="middle">1</text>
  <text x="530" y="220" font-family="Microsoft YaHei, 微软雅黑" font-size="12" text-anchor="middle">n</text>
  
  <!-- 会员-课程类别管理关系连线 -->
  <line x1="550" y1="320" x2="620" y2="255" stroke="#eb2f96" stroke-width="2" />
  <line x1="620" y1="215" x2="700" y2="210" stroke="#eb2f96" stroke-width="2" />
  <text x="560" y="300" font-family="Microsoft YaHei, 微软雅黑" font-size="12" text-anchor="middle">1</text>
  <text x="670" y="210" font-family="Microsoft YaHei, 微软雅黑" font-size="12" text-anchor="middle">n</text>
  
  <!-- 会员-器材管理关系连线 -->
  <line x1="500" y1="350" x2="390" y2="290" stroke="#eb2f96" stroke-width="2" />
  <line x1="370" y1="290" x2="320" y2="320" stroke="#eb2f96" stroke-width="2" />
  <text x="460" y="340" font-family="Microsoft YaHei, 微软雅黑" font-size="12" text-anchor="middle">1</text>
  <text x="320" y="300" font-family="Microsoft YaHei, 微软雅黑" font-size="12" text-anchor="middle">n</text>
  
  <!-- 会员-商品管理关系连线 -->
  <line x1="600" y1="350" x2="690" y2="290" stroke="#eb2f96" stroke-width="2" />
  <line x1="670" y1="290" x2="780" y2="320" stroke="#eb2f96" stroke-width="2" />
  <text x="620" y="340" font-family="Microsoft YaHei, 微软雅黑" font-size="12" text-anchor="middle">1</text>
  <text x="750" y="310" font-family="Microsoft YaHei, 微软雅黑" font-size="12" text-anchor="middle">n</text>
  
  <!-- 会员-课程预约管理关系连线 -->
  <line x1="500" y1="350" x2="470" y2="415" stroke="#eb2f96" stroke-width="2" />
  <polyline points="470,455 440,500 380,550" stroke="#eb2f96" stroke-width="2" fill="none" />
  <text x="500" y="360" font-family="Microsoft YaHei, 微软雅黑" font-size="12" text-anchor="middle">1</text>
  <text x="380" y="530" font-family="Microsoft YaHei, 微软雅黑" font-size="12" text-anchor="middle">n</text>
  
  <!-- 会员-商品交易管理关系连线 -->
  <line x1="600" y1="350" x2="670" y2="415" stroke="#eb2f96" stroke-width="2" />
  <polyline points="670,455 700,500 750,520" stroke="#eb2f96" stroke-width="2" fill="none" />
  <text x="620" y="370" font-family="Microsoft YaHei, 微软雅黑" font-size="12" text-anchor="middle">1</text>
  <text x="730" y="500" font-family="Microsoft YaHei, 微软雅黑" font-size="12" text-anchor="middle">n</text>

  <!-- 图例 -->
  <rect x="950" y="100" width="80" height="40" rx="5" ry="5" fill="url(#entityGradient)" stroke="#fa8c16" stroke-width="2" />
  <text x="990" y="125" font-family="Microsoft YaHei, 微软雅黑" font-size="14" text-anchor="middle">实体</text>
  
  <polygon points="965,170 990,145 1015,170 990,195" fill="url(#relationGradient)" stroke="#52c41a" stroke-width="2" />
  <text x="990" y="175" font-family="Microsoft YaHei, 微软雅黑" font-size="14" text-anchor="middle">关系</text>
  
  <polygon points="965,240 990,215 1015,240 990,265" fill="url(#adminRelationGradient)" stroke="#eb2f96" stroke-width="2" />
  <text x="990" y="245" font-family="Microsoft YaHei, 微软雅黑" font-size="14" text-anchor="middle">管理关系</text>
  <text x="990" y="265" font-family="Microsoft YaHei, 微软雅黑" font-size="10" text-anchor="middle" fill="#eb2f96">[role='admin']</text>
  
  <text x="990" y="310" font-family="Microsoft YaHei, 微软雅黑" font-size="14" text-anchor="middle">基数约束</text>
  <text x="990" y="335" font-family="Microsoft YaHei, 微软雅黑" font-size="14" text-anchor="middle">1: 一  n: 多</text>
</svg>