<svg xmlns="http://www.w3.org/2000/svg" width="1200" height="1200" viewBox="0 0 1200 1200">
  <defs>
    <!-- 定义渐变和滤镜 -->
    <linearGradient id="entityGradient" x1="0%" y1="0%" x2="0%" y2="100%">
      <stop offset="0%" stop-color="#ffe7ba" />
      <stop offset="100%" stop-color="#ffd591" />
    </linearGradient>
    <linearGradient id="relationGradient" x1="0%" y1="0%" x2="0%" y2="100%">
      <stop offset="0%" stop-color="#d9f7be" />
      <stop offset="100%" stop-color="#b7eb8f" />
    </linearGradient>
    <linearGradient id="adminRelationGradient" x1="0%" y1="0%" x2="0%" y2="100%">
      <stop offset="0%" stop-color="#ffd6e7" />
      <stop offset="100%" stop-color="#ffadd2" />
    </linearGradient>
    <linearGradient id="attributeGradient" x1="0%" y1="0%" x2="0%" y2="100%">
      <stop offset="0%" stop-color="#d6e4ff" />
      <stop offset="100%" stop-color="#adc6ff" />
    </linearGradient>
    <filter id="shadow" x="-10%" y="-10%" width="120%" height="120%">
      <feDropShadow dx="2" dy="2" stdDeviation="2" flood-opacity="0.3" />
    </filter>
  </defs>
  
  <!-- 标题 -->
  <text x="600" y="50" font-family="Microsoft YaHei, 微软雅黑" font-size="24" font-weight="bold" text-anchor="middle">健身房管理系统实体关系图</text>
  
  <!-- 实体定义（矩形） -->
  <!-- 会员实体 -->
  <rect x="550" y="130" width="100" height="60" rx="5" ry="5" fill="url(#entityGradient)" stroke="#fa8c16" stroke-width="2" filter="url(#shadow)" />
  <text x="600" y="165" font-family="Microsoft YaHei, 微软雅黑" font-size="18" font-weight="bold" text-anchor="middle">会员</text>
  
  <!-- 会员属性（椭圆） -->
  <ellipse cx="440" cy="100" rx="40" ry="25" fill="url(#attributeGradient)" stroke="#1890ff" stroke-width="1.5" filter="url(#shadow)" />
  <text x="440" y="105" font-family="Microsoft YaHei, 微软雅黑" font-size="12" text-anchor="middle">id</text>
  
  <ellipse cx="520" cy="70" rx="60" ry="25" fill="url(#attributeGradient)" stroke="#1890ff" stroke-width="1.5" filter="url(#shadow)" />
  <text x="520" y="75" font-family="Microsoft YaHei, 微软雅黑" font-size="12" text-anchor="middle">member_name</text>
  
  <ellipse cx="630" cy="70" rx="60" ry="25" fill="url(#attributeGradient)" stroke="#1890ff" stroke-width="1.5" filter="url(#shadow)" />
  <text x="630" y="75" font-family="Microsoft YaHei, 微软雅黑" font-size="12" text-anchor="middle">member_account</text>
  
  <ellipse cx="710" cy="100" rx="60" ry="25" fill="url(#attributeGradient)" stroke="#1890ff" stroke-width="1.5" filter="url(#shadow)" />
  <text x="710" y="105" font-family="Microsoft YaHei, 微软雅黑" font-size="12" text-anchor="middle">member_role</text>
  
  <!-- 教练实体 -->
  <rect x="250" y="300" width="100" height="60" rx="5" ry="5" fill="url(#entityGradient)" stroke="#fa8c16" stroke-width="2" filter="url(#shadow)" />
  <text x="300" y="335" font-family="Microsoft YaHei, 微软雅黑" font-size="18" font-weight="bold" text-anchor="middle">教练</text>
  
  <!-- 教练属性 -->
  <ellipse cx="180" cy="250" rx="40" ry="25" fill="url(#attributeGradient)" stroke="#1890ff" stroke-width="1.5" filter="url(#shadow)" />
  <text x="180" y="255" font-family="Microsoft YaHei, 微软雅黑" font-size="12" text-anchor="middle">coach_id</text>
  
  <ellipse cx="270" cy="230" rx="50" ry="25" fill="url(#attributeGradient)" stroke="#1890ff" stroke-width="1.5" filter="url(#shadow)" />
  <text x="270" y="235" font-family="Microsoft YaHei, 微软雅黑" font-size="12" text-anchor="middle">coach_name</text>
  
  <!-- 课程实体 -->
  <rect x="550" y="300" width="100" height="60" rx="5" ry="5" fill="url(#entityGradient)" stroke="#fa8c16" stroke-width="2" filter="url(#shadow)" />
  <text x="600" y="335" font-family="Microsoft YaHei, 微软雅黑" font-size="18" font-weight="bold" text-anchor="middle">课程</text>
  
  <!-- 课程属性 -->
  <ellipse cx="500" cy="240" rx="40" ry="25" fill="url(#attributeGradient)" stroke="#1890ff" stroke-width="1.5" filter="url(#shadow)" />
  <text x="500" y="245" font-family="Microsoft YaHei, 微软雅黑" font-size="12" text-anchor="middle">course_id</text>
  
  <ellipse cx="600" cy="230" rx="50" ry="25" fill="url(#attributeGradient)" stroke="#1890ff" stroke-width="1.5" filter="url(#shadow)" />
  <text x="600" y="235" font-family="Microsoft YaHei, 微软雅黑" font-size="12" text-anchor="middle">course_name</text>
  
  <!-- 课程类别实体 -->
  <rect x="850" y="300" width="100" height="60" rx="5" ry="5" fill="url(#entityGradient)" stroke="#fa8c16" stroke-width="2" filter="url(#shadow)" />
  <text x="900" y="335" font-family="Microsoft YaHei, 微软雅黑" font-size="18" font-weight="bold" text-anchor="middle">课程类别</text>
  
  <!-- 课程排期实体 -->
  <rect x="550" y="500" width="100" height="60" rx="5" ry="5" fill="url(#entityGradient)" stroke="#fa8c16" stroke-width="2" filter="url(#shadow)" />
  <text x="600" y="535" font-family="Microsoft YaHei, 微软雅黑" font-size="18" font-weight="bold" text-anchor="middle">课程排期</text>
  
  <!-- 器材实体 -->
  <rect x="250" y="500" width="100" height="60" rx="5" ry="5" fill="url(#entityGradient)" stroke="#fa8c16" stroke-width="2" filter="url(#shadow)" />
  <text x="300" y="535" font-family="Microsoft YaHei, 微软雅黑" font-size="18" font-weight="bold" text-anchor="middle">器材</text>
  
  <!-- 器材类别实体 -->
  <rect x="250" y="700" width="100" height="60" rx="5" ry="5" fill="url(#entityGradient)" stroke="#fa8c16" stroke-width="2" filter="url(#shadow)" />
  <text x="300" y="735" font-family="Microsoft YaHei, 微软雅黑" font-size="18" font-weight="bold" text-anchor="middle">器材类别</text>
  
  <!-- 商品实体 -->
  <rect x="550" y="700" width="100" height="60" rx="5" ry="5" fill="url(#entityGradient)" stroke="#fa8c16" stroke-width="2" filter="url(#shadow)" />
  <text x="600" y="735" font-family="Microsoft YaHei, 微软雅黑" font-size="18" font-weight="bold" text-anchor="middle">商品</text>
  
  <!-- 商品类别实体 -->
  <rect x="850" y="700" width="100" height="60" rx="5" ry="5" fill="url(#entityGradient)" stroke="#fa8c16" stroke-width="2" filter="url(#shadow)" />
  <text x="900" y="735" font-family="Microsoft YaHei, 微软雅黑" font-size="18" font-weight="bold" text-anchor="middle">商品类别</text>
  
  <!-- 商品交易实体 -->
  <rect x="550" y="900" width="100" height="60" rx="5" ry="5" fill="url(#entityGradient)" stroke="#fa8c16" stroke-width="2" filter="url(#shadow)" />
  <text x="600" y="935" font-family="Microsoft YaHei, 微软雅黑" font-size="18" font-weight="bold" text-anchor="middle">商品交易</text>
  
  <!-- 课程预约实体 -->
  <rect x="850" y="500" width="100" height="60" rx="5" ry="5" fill="url(#entityGradient)" stroke="#fa8c16" stroke-width="2" filter="url(#shadow)" />
  <text x="900" y="535" font-family="Microsoft YaHei, 微软雅黑" font-size="18" font-weight="bold" text-anchor="middle">课程预约</text>
  
  <!-- 业务关系定义（菱形） -->
  <!-- 教练-课程关系 -->
  <polygon points="400,330 415,315 430,330 415,345" fill="url(#relationGradient)" stroke="#52c41a" stroke-width="2" filter="url(#shadow)" />
  <text x="415" y="335" font-family="Microsoft YaHei, 微软雅黑" font-size="14" text-anchor="middle">讲授</text>
  
  <!-- 课程-课程类别关系 -->
  <polygon points="700,330 715,315 730,330 715,345" fill="url(#relationGradient)" stroke="#52c41a" stroke-width="2" filter="url(#shadow)" />
  <text x="715" y="335" font-family="Microsoft YaHei, 微软雅黑" font-size="14" text-anchor="middle">属于</text>
  
  <!-- 课程-课程排期关系 -->
  <polygon points="600,400 615,385 630,400 615,415" fill="url(#relationGradient)" stroke="#52c41a" stroke-width="2" filter="url(#shadow)" />
  <text x="615" y="405" font-family="Microsoft YaHei, 微软雅黑" font-size="14" text-anchor="middle">排期</text>
  
  <!-- 课程排期-课程预约关系 -->
  <polygon points="700,530 715,515 730,530 715,545" fill="url(#relationGradient)" stroke="#52c41a" stroke-width="2" filter="url(#shadow)" />
  <text x="715" y="535" font-family="Microsoft YaHei, 微软雅黑" font-size="14" text-anchor="middle">预约</text>
  
  <!-- 会员-课程预约关系 -->
  <polygon points="900,400 915,385 930,400 915,415" fill="url(#relationGradient)" stroke="#52c41a" stroke-width="2" filter="url(#shadow)" />
  <text x="915" y="405" font-family="Microsoft YaHei, 微软雅黑" font-size="14" text-anchor="middle">预约</text>
  
  <!-- 器材-器材类别关系 -->
  <polygon points="300,600 315,585 330,600 315,615" fill="url(#relationGradient)" stroke="#52c41a" stroke-width="2" filter="url(#shadow)" />
  <text x="315" y="605" font-family="Microsoft YaHei, 微软雅黑" font-size="14" text-anchor="middle">分类</text>
  
  <!-- 商品-商品类别关系 -->
  <polygon points="700,730 715,715 730,730 715,745" fill="url(#relationGradient)" stroke="#52c41a" stroke-width="2" filter="url(#shadow)" />
  <text x="715" y="735" font-family="Microsoft YaHei, 微软雅黑" font-size="14" text-anchor="middle">属于</text>
  
  <!-- 商品-商品交易关系 -->
  <polygon points="600,800 615,785 630,800 615,815" fill="url(#relationGradient)" stroke="#52c41a" stroke-width="2" filter="url(#shadow)" />
  <text x="615" y="805" font-family="Microsoft YaHei, 微软雅黑" font-size="14" text-anchor="middle">交易</text>
  
  <!-- 会员-商品交易关系 -->
  <polygon points="450,900 465,885 480,900 465,915" fill="url(#relationGradient)" stroke="#52c41a" stroke-width="2" filter="url(#shadow)" />
  <text x="465" y="905" font-family="Microsoft YaHei, 微软雅黑" font-size="14" text-anchor="middle">购买</text>
  
  <!-- 管理关系定义（特殊颜色菱形） -->
  <!-- 会员(管理员)-教练管理关系 -->
  <polygon points="380,230 395,215 410,230 395,245" fill="url(#adminRelationGradient)" stroke="#eb2f96" stroke-width="2" filter="url(#shadow)" />
  <text x="395" y="235" font-family="Microsoft YaHei, 微软雅黑" font-size="12" text-anchor="middle">管理</text>
  <text x="395" y="205" font-family="Microsoft YaHei, 微软雅黑" font-size="10" text-anchor="middle" fill="#eb2f96">[role='admin']</text>
  
  <!-- 会员(管理员)-课程管理关系 -->
  <polygon points="460,230 475,215 490,230 475,245" fill="url(#adminRelationGradient)" stroke="#eb2f96" stroke-width="2" filter="url(#shadow)" />
  <text x="475" y="235" font-family="Microsoft YaHei, 微软雅黑" font-size="12" text-anchor="middle">管理</text>
  <text x="475" y="205" font-family="Microsoft YaHei, 微软雅黑" font-size="10" text-anchor="middle" fill="#eb2f96">[role='admin']</text>
  
  <!-- 会员(管理员)-课程类别管理关系 -->
  <polygon points="800,230 815,215 830,230 815,245" fill="url(#adminRelationGradient)" stroke="#eb2f96" stroke-width="2" filter="url(#shadow)" />
  <text x="815" y="235" font-family="Microsoft YaHei, 微软雅黑" font-size="12" text-anchor="middle">管理</text>
  <text x="815" y="205" font-family="Microsoft YaHei, 微软雅黑" font-size="10" text-anchor="middle" fill="#eb2f96">[role='admin']</text>
  
  <!-- 会员(管理员)-课程排期管理关系 -->
  <polygon points="460,400 475,385 490,400 475,415" fill="url(#adminRelationGradient)" stroke="#eb2f96" stroke-width="2" filter="url(#shadow)" />
  <text x="475" y="405" font-family="Microsoft YaHei, 微软雅黑" font-size="12" text-anchor="middle">管理</text>
  <text x="475" y="375" font-family="Microsoft YaHei, 微软雅黑" font-size="10" text-anchor="middle" fill="#eb2f96">[role='admin']</text>
  
  <!-- 会员(管理员)-器材管理关系 -->
  <polygon points="380,400 395,385 410,400 395,415" fill="url(#adminRelationGradient)" stroke="#eb2f96" stroke-width="2" filter="url(#shadow)" />
  <text x="395" y="405" font-family="Microsoft YaHei, 微软雅黑" font-size="12" text-anchor="middle">管理</text>
  <text x="395" y="375" font-family="Microsoft YaHei, 微软雅黑" font-size="10" text-anchor="middle" fill="#eb2f96">[role='admin']</text>
  
  <!-- 会员(管理员)-商品管理关系 -->
  <polygon points="700,400 715,385 730,400 715,415" fill="url(#adminRelationGradient)" stroke="#eb2f96" stroke-width="2" filter="url(#shadow)" />
  <text x="715" y="405" font-family="Microsoft YaHei, 微软雅黑" font-size="12" text-anchor="middle">管理</text>
  <text x="715" y="375" font-family="Microsoft YaHei, 微软雅黑" font-size="10" text-anchor="middle" fill="#eb2f96">[role='admin']</text>
  
  <!-- 会员属性连线 -->
  <line x1="440" y1="100" x2="550" y2="150" stroke="#1890ff" stroke-width="1.5" />
  <line x1="520" y1="70" x2="570" y2="130" stroke="#1890ff" stroke-width="1.5" />
  <line x1="630" y1="70" x2="610" y2="130" stroke="#1890ff" stroke-width="1.5" />
  <line x1="710" y1="100" x2="650" y2="150" stroke="#1890ff" stroke-width="1.5" />
  
  <!-- 教练属性连线 -->
  <line x1="180" y1="250" x2="260" y2="300" stroke="#1890ff" stroke-width="1.5" />
  <line x1="270" y1="230" x2="290" y2="300" stroke="#1890ff" stroke-width="1.5" />
  
  <!-- 课程属性连线 -->
  <line x1="500" y1="240" x2="560" y2="300" stroke="#1890ff" stroke-width="1.5" />
  <line x1="600" y1="230" x2="600" y2="300" stroke="#1890ff" stroke-width="1.5" />
  
  <!-- 关系连线 -->
  <!-- 教练-课程关系连线 -->
  <line x1="350" y1="330" x2="400" y2="330" stroke="#52c41a" stroke-width="1.5" />
  <line x1="430" y1="330" x2="550" y2="330" stroke="#52c41a" stroke-width="1.5" />
  <text x="380" y="320" font-family="Microsoft YaHei, 微软雅黑" font-size="14" text-anchor="middle">1</text>
  <text x="500" y="320" font-family="Microsoft YaHei, 微软雅黑" font-size="14" text-anchor="middle">n</text>
  
  <!-- 课程-课程类别关系连线 -->
  <line x1="650" y1="330" x2="700" y2="330" stroke="#52c41a" stroke-width="1.5" />
  <line x1="730" y1="330" x2="850" y2="330" stroke="#52c41a" stroke-width="1.5" />
  <text x="680" y="320" font-family="Microsoft YaHei, 微软雅黑" font-size="14" text-anchor="middle">n</text>
  <text x="800" y="320" font-family="Microsoft YaHei, 微软雅黑" font-size="14" text-anchor="middle">1</text>
  
  <!-- 课程-课程排期关系连线 -->
  <line x1="600" y1="360" x2="615" y2="385" stroke="#52c41a" stroke-width="1.5" />
  <line x1="615" y1="415" x2="600" y2="500" stroke="#52c41a" stroke-width="1.5" />
  <text x="590" y="380" font-family="Microsoft YaHei, 微软雅黑" font-size="14" text-anchor="middle">1</text>
  <text x="590" y="480" font-family="Microsoft YaHei, 微软雅黑" font-size="14" text-anchor="middle">n</text>
  
  <!-- 课程排期-课程预约关系连线 -->
  <line x1="650" y1="530" x2="700" y2="530" stroke="#52c41a" stroke-width="1.5" />
  <line x1="730" y1="530" x2="850" y2="530" stroke="#52c41a" stroke-width="1.5" />
  <text x="680" y="520" font-family="Microsoft YaHei, 微软雅黑" font-size="14" text-anchor="middle">1</text>
  <text x="800" y="520" font-family="Microsoft YaHei, 微软雅黑" font-size="14" text-anchor="middle">n</text>
  
  <!-- 会员-课程预约关系连线 -->
  <line x1="600" y1="190" x2="900" y2="390" stroke="#52c41a" stroke-width="1.5" stroke-dasharray="5,5" />
  <line x1="915" y1="415" x2="900" y2="500" stroke="#52c41a" stroke-width="1.5" />
  <text x="620" y="200" font-family="Microsoft YaHei, 微软雅黑" font-size="14" text-anchor="middle">1</text>
  <text x="920" y="480" font-family="Microsoft YaHei, 微软雅黑" font-size="14" text-anchor="middle">n</text>
  
  <!-- 器材-器材类别关系连线 -->
  <line x1="300" y1="560" x2="315" y2="585" stroke="#52c41a" stroke-width="1.5" />
  <line x1="315" y1="615" x2="300" y2="700" stroke="#52c41a" stroke-width="1.5" />
  <text x="290" y="580" font-family="Microsoft YaHei, 微软雅黑" font-size="14" text-anchor="middle">n</text>
  <text x="290" y="680" font-family="Microsoft YaHei, 微软雅黑" font-size="14" text-anchor="middle">1</text>
  
  <!-- 商品-商品类别关系连线 -->
  <line x1="650" y1="730" x2="700" y2="730" stroke="#52c41a" stroke-width="1.5" />
  <line x1="730" y1="730" x2="850" y2="730" stroke="#52c41a" stroke-width="1.5" />
  <text x="680" y="720" font-family="Microsoft YaHei, 微软雅黑" font-size="14" text-anchor="middle">n</text>
  <text x="800" y="720" font-family="Microsoft YaHei, 微软雅黑" font-size="14" text-anchor="middle">1</text>
  
  <!-- 商品-商品交易关系连线 -->
  <line x1="600" y1="760" x2="615" y2="785" stroke="#52c41a" stroke-width="1.5" />
  <line x1="615" y1="815" x2="600" y2="900" stroke="#52c41a" stroke-width="1.5" />
  <text x="590" y="780" font-family="Microsoft YaHei, 微软雅黑" font-size="14" text-anchor="middle">1</text>
  <text x="590" y="880" font-family="Microsoft YaHei, 微软雅黑" font-size="14" text-anchor="middle">n</text>
  
  <!-- 会员-商品交易关系连线 -->
  <line x1="580" y1="190" x2="465" y2="885" stroke="#52c41a" stroke-width="1.5" stroke-dasharray="5,5" />
  <line x1="480" y1="900" x2="550" y2="930" stroke="#52c41a" stroke-width="1.5" />
  <text x="540" y="220" font-family="Microsoft YaHei, 微软雅黑" font-size="14" text-anchor="middle">1</text>
  <text x="530" y="910" font-family="Microsoft YaHei, 微软雅黑" font-size="14" text-anchor="middle">n</text>
  
  <!-- 管理关系连线 -->
  <!-- 会员-教练管理关系连线 -->
  <line x1="550" y1="170" x2="395" y2="215" stroke="#eb2f96" stroke-width="1.5" />
  <line x1="395" y1="245" x2="300" y2="300" stroke="#eb2f96" stroke-width="1.5" />
  <text x="530" y="180" font-family="Microsoft YaHei, 微软雅黑" font-size="12" text-anchor="middle">1</text>
  <text x="330" y="280" font-family="Microsoft YaHei, 微软雅黑" font-size="12" text-anchor="middle">n</text>
  
  <!-- 会员-课程管理关系连线 -->
  <line x1="580" y1="190" x2="475" y2="215" stroke="#eb2f96" stroke-width="1.5" />
  <line x1="475" y1="245" x2="580" y2="300" stroke="#eb2f96" stroke-width="1.5" />
  <text x="560" y="200" font-family="Microsoft YaHei, 微软雅黑" font-size="12" text-anchor="middle">1</text>
  <text x="560" y="280" font-family="Microsoft YaHei, 微软雅黑" font-size="12" text-anchor="middle">n</text>
  
  <!-- 会员-课程类别管理关系连线 -->
  <line x1="620" y1="190" x2="815" y2="215" stroke="#eb2f96" stroke-width="1.5" />
  <line x1="815" y1="245" x2="900" y2="300" stroke="#eb2f96" stroke-width="1.5" />
  <text x="640" y="200" font-family="Microsoft YaHei, 微软雅黑" font-size="12" text-anchor="middle">1</text>
  <text x="880" y="280" font-family="Microsoft YaHei, 微软雅黑" font-size="12" text-anchor="middle">n</text>
  
  <!-- 会员-课程排期管理关系连线 -->
  <line x1="555" y1="190" x2="475" y2="385" stroke="#eb2f96" stroke-width="1.5" />
  <line x1="475" y1="415" x2="555" y2="500" stroke="#eb2f96" stroke-width="1.5" />
  <text x="540" y="210" font-family="Microsoft YaHei, 微软雅黑" font-size="12" text-anchor="middle">1</text>
  <text x="540" y="480" font-family="Microsoft YaHei, 微软雅黑" font-size="12" text-anchor="middle">n</text>
  
  <!-- 会员-器材管理关系连线 -->
  <line x1="550" y1="180" x2="395" y2="385" stroke="#eb2f96" stroke-width="1.5" />
  <line x1="395" y1="415" x2="300" y2="500" stroke="#eb2f96" stroke-width="1.5" />
  <text x="530" y="190" font-family="Microsoft YaHei, 微软雅黑" font-size="12" text-anchor="middle">1</text>
  <text x="320" y="480" font-family="Microsoft YaHei, 微软雅黑" font-size="12" text-anchor="middle">n</text>
  
  <!-- 会员-商品管理关系连线 -->
  <line x1="650" y1="170" x2="715" y2="385" stroke="#eb2f96" stroke-width="1.5" />
  <line x1="715" y1="415" x2="600" y2="700" stroke="#eb2f96" stroke-width="1.5" />
  <text x="660" y="190" font-family="Microsoft YaHei, 微软雅黑" font-size="12" text-anchor="middle">1</text>
  <text x="620" y="680" font-family="Microsoft YaHei, 微软雅黑" font-size="12" text-anchor="middle">n</text>
  
  <!-- 图例 -->
  <rect x="950" y="100" width="80" height="40" rx="5" ry="5" fill="url(#entityGradient)" stroke="#fa8c16" stroke-width="2" />
  <text x="990" y="125" font-family="Microsoft YaHei, 微软雅黑" font-size="14" text-anchor="middle">实体</text>
  
  <polygon points="965,180 990,155 1015,180 990,205" fill="url(#relationGradient)" stroke="#52c41a" stroke-width="2" />
  <text x="990" y="185" font-family="Microsoft YaHei, 微软雅黑" font-size="14" text-anchor="middle">关系</text>
  
  <polygon points="965,250 990,225 1015,250 990,275" fill="url(#adminRelationGradient)" stroke="#eb2f96" stroke-width="2" />
  <text x="990" y="255" font-family="Microsoft YaHei, 微软雅黑" font-size="14" text-anchor="middle">管理</text>
  
  <ellipse cx="990" cy="320" rx="50" ry="25" fill="url(#attributeGradient)" stroke="#1890ff" stroke-width="1.5" />
  <text x="990" y="325" font-family="Microsoft YaHei, 微软雅黑" font-size="14" text-anchor="middle">属性</text>
  
  <text x="990" y="370" font-family="Microsoft YaHei, 微软雅黑" font-size="14" text-anchor="middle">基数约束</text>
  <text x="990" y="400" font-family="Microsoft YaHei, 微软雅黑" font-size="14" text-anchor="middle">1: 一  n: 多</text>
  
  <line x1="950" y1="440" x2="1030" y2="440" stroke="#eb2f96" stroke-width="1.5" />
  <text x="990" y="460" font-family="Microsoft YaHei, 微软雅黑" font-size="14" text-anchor="middle">管理关系连线</text>
</svg>