<svg xmlns="http://www.w3.org/2000/svg" width="1100" height="900" viewBox="0 0 1100 900">
  <defs>
    <!-- 定义渐变和滤镜 -->
    <linearGradient id="entityGradient" x1="0%" y1="0%" x2="0%" y2="100%">
      <stop offset="0%" stop-color="#ffe7ba" />
      <stop offset="100%" stop-color="#ffd591" />
    </linearGradient>
    <linearGradient id="relationGradient" x1="0%" y1="0%" x2="0%" y2="100%">
      <stop offset="0%" stop-color="#d9f7be" />
      <stop offset="100%" stop-color="#b7eb8f" />
    </linearGradient>
    <linearGradient id="adminRelationGradient" x1="0%" y1="0%" x2="0%" y2="100%">
      <stop offset="0%" stop-color="#ffd6e7" />
      <stop offset="100%" stop-color="#ffadd2" />
    </linearGradient>
    <filter id="shadow" x="-10%" y="-10%" width="120%" height="120%">
      <feDropShadow dx="2" dy="2" stdDeviation="2" flood-opacity="0.3" />
    </filter>
  </defs>
  
  <!-- 标题 -->
  <text x="550" y="40" font-family="Microsoft YaHei, 微软雅黑" font-size="24" font-weight="bold" text-anchor="middle">健身房管理系统实体关系图</text>
  
  <!-- 实体定义（矩形） -->
  <!-- 会员实体（居中顶部） -->
  <rect x="500" y="100" width="100" height="60" rx="5" ry="5" fill="url(#entityGradient)" stroke="#fa8c16" stroke-width="2" filter="url(#shadow)" />
  <text x="550" y="135" font-family="Microsoft YaHei, 微软雅黑" font-size="18" font-weight="bold" text-anchor="middle">会员</text>
  
  <!-- 教练实体（左上） -->
  <rect x="200" y="220" width="100" height="60" rx="5" ry="5" fill="url(#entityGradient)" stroke="#fa8c16" stroke-width="2" filter="url(#shadow)" />
  <text x="250" y="255" font-family="Microsoft YaHei, 微软雅黑" font-size="18" font-weight="bold" text-anchor="middle">教练</text>
  
  <!-- 课程实体（中上） -->
  <rect x="500" y="220" width="100" height="60" rx="5" ry="5" fill="url(#entityGradient)" stroke="#fa8c16" stroke-width="2" filter="url(#shadow)" />
  <text x="550" y="255" font-family="Microsoft YaHei, 微软雅黑" font-size="18" font-weight="bold" text-anchor="middle">课程</text>
  
  <!-- 课程类别实体（右上） -->
  <rect x="800" y="220" width="100" height="60" rx="5" ry="5" fill="url(#entityGradient)" stroke="#fa8c16" stroke-width="2" filter="url(#shadow)" />
  <text x="850" y="255" font-family="Microsoft YaHei, 微软雅黑" font-size="18" font-weight="bold" text-anchor="middle">课程类别</text>
  
  <!-- 课程排期实体（中） -->
  <rect x="500" y="400" width="100" height="60" rx="5" ry="5" fill="url(#entityGradient)" stroke="#fa8c16" stroke-width="2" filter="url(#shadow)" />
  <text x="550" y="435" font-family="Microsoft YaHei, 微软雅黑" font-size="18" font-weight="bold" text-anchor="middle">课程排期</text>
  
  <!-- 课程预约实体（右中） -->
  <rect x="800" y="400" width="100" height="60" rx="5" ry="5" fill="url(#entityGradient)" stroke="#fa8c16" stroke-width="2" filter="url(#shadow)" />
  <text x="850" y="435" font-family="Microsoft YaHei, 微软雅黑" font-size="18" font-weight="bold" text-anchor="middle">课程预约</text>
  
  <!-- 器材实体（左中） -->
  <rect x="200" y="400" width="100" height="60" rx="5" ry="5" fill="url(#entityGradient)" stroke="#fa8c16" stroke-width="2" filter="url(#shadow)" />
  <text x="250" y="435" font-family="Microsoft YaHei, 微软雅黑" font-size="18" font-weight="bold" text-anchor="middle">器材</text>
  
  <!-- 器材类别实体（左下） -->
  <rect x="200" y="580" width="100" height="60" rx="5" ry="5" fill="url(#entityGradient)" stroke="#fa8c16" stroke-width="2" filter="url(#shadow)" />
  <text x="250" y="615" font-family="Microsoft YaHei, 微软雅黑" font-size="18" font-weight="bold" text-anchor="middle">器材类别</text>
  
  <!-- 商品实体（中下） -->
  <rect x="500" y="580" width="100" height="60" rx="5" ry="5" fill="url(#entityGradient)" stroke="#fa8c16" stroke-width="2" filter="url(#shadow)" />
  <text x="550" y="615" font-family="Microsoft YaHei, 微软雅黑" font-size="18" font-weight="bold" text-anchor="middle">商品</text>
  
  <!-- 商品类别实体（右下） -->
  <rect x="800" y="580" width="100" height="60" rx="5" ry="5" fill="url(#entityGradient)" stroke="#fa8c16" stroke-width="2" filter="url(#shadow)" />
  <text x="850" y="615" font-family="Microsoft YaHei, 微软雅黑" font-size="18" font-weight="bold" text-anchor="middle">商品类别</text>
  
  <!-- 商品交易实体（最下） -->
  <rect x="500" y="760" width="100" height="60" rx="5" ry="5" fill="url(#entityGradient)" stroke="#fa8c16" stroke-width="2" filter="url(#shadow)" />
  <text x="550" y="795" font-family="Microsoft YaHei, 微软雅黑" font-size="18" font-weight="bold" text-anchor="middle">商品交易</text>
  
  <!-- 业务关系定义（菱形） -->
  <!-- 教练-课程关系 -->
  <polygon points="350,250 370,230 390,250 370,270" fill="url(#relationGradient)" stroke="#52c41a" stroke-width="2" filter="url(#shadow)" />
  <text x="370" y="255" font-family="Microsoft YaHei, 微软雅黑" font-size="16" text-anchor="middle">讲授</text>
  
  <!-- 课程-课程类别关系 -->
  <polygon points="650,250 670,230 690,250 670,270" fill="url(#relationGradient)" stroke="#52c41a" stroke-width="2" filter="url(#shadow)" />
  <text x="670" y="255" font-family="Microsoft YaHei, 微软雅黑" font-size="16" text-anchor="middle">属于</text>
  
  <!-- 课程-课程排期关系 -->
  <polygon points="550,320 570,300 590,320 570,340" fill="url(#relationGradient)" stroke="#52c41a" stroke-width="2" filter="url(#shadow)" />
  <text x="570" y="325" font-family="Microsoft YaHei, 微软雅黑" font-size="16" text-anchor="middle">排期</text>
  
  <!-- 课程排期-课程预约关系 -->
  <polygon points="650,430 670,410 690,430 670,450" fill="url(#relationGradient)" stroke="#52c41a" stroke-width="2" filter="url(#shadow)" />
  <text x="670" y="435" font-family="Microsoft YaHei, 微软雅黑" font-size="16" text-anchor="middle">预约</text>
  
  <!-- 器材-器材类别关系 -->
  <polygon points="250,500 270,480 290,500 270,520" fill="url(#relationGradient)" stroke="#52c41a" stroke-width="2" filter="url(#shadow)" />
  <text x="270" y="505" font-family="Microsoft YaHei, 微软雅黑" font-size="16" text-anchor="middle">分类</text>
  
  <!-- 商品-商品类别关系 -->
  <polygon points="650,610 670,590 690,610 670,630" fill="url(#relationGradient)" stroke="#52c41a" stroke-width="2" filter="url(#shadow)" />
  <text x="670" y="615" font-family="Microsoft YaHei, 微软雅黑" font-size="16" text-anchor="middle">属于</text>
  
  <!-- 商品-商品交易关系 -->
  <polygon points="550,680 570,660 590,680 570,700" fill="url(#relationGradient)" stroke="#52c41a" stroke-width="2" filter="url(#shadow)" />
  <text x="570" y="685" font-family="Microsoft YaHei, 微软雅黑" font-size="16" text-anchor="middle">交易</text>
  
  <!-- 会员-课程预约关系 -->
  <polygon points="850,320 870,300 890,320 870,340" fill="url(#relationGradient)" stroke="#52c41a" stroke-width="2" filter="url(#shadow)" />
  <text x="870" y="325" font-family="Microsoft YaHei, 微软雅黑" font-size="16" text-anchor="middle">预约</text>
  
  <!-- 会员-商品交易关系 -->
  <polygon points="400,760 420,740 440,760 420,780" fill="url(#relationGradient)" stroke="#52c41a" stroke-width="2" filter="url(#shadow)" />
  <text x="420" y="765" font-family="Microsoft YaHei, 微软雅黑" font-size="16" text-anchor="middle">购买</text>
  
  <!-- 管理关系定义（特殊颜色菱形） -->
  <!-- 会员(管理员)-教练管理关系 -->
  <polygon points="330,170 350,150 370,170 350,190" fill="url(#adminRelationGradient)" stroke="#eb2f96" stroke-width="2" filter="url(#shadow)" />
  <text x="350" y="175" font-family="Microsoft YaHei, 微软雅黑" font-size="14" text-anchor="middle">管理</text>
  <text x="350" y="145" font-family="Microsoft YaHei, 微软雅黑" font-size="10" text-anchor="middle" fill="#eb2f96">[role='admin']</text>
  
  <!-- 会员(管理员)-课程管理关系 -->
  <polygon points="420,170 440,150 460,170 440,190" fill="url(#adminRelationGradient)" stroke="#eb2f96" stroke-width="2" filter="url(#shadow)" />
  <text x="440" y="175" font-family="Microsoft YaHei, 微软雅黑" font-size="14" text-anchor="middle">管理</text>
  <text x="440" y="145" font-family="Microsoft YaHei, 微软雅黑" font-size="10" text-anchor="middle" fill="#eb2f96">[role='admin']</text>
  
  <!-- 会员(管理员)-课程类别管理关系 -->
  <polygon points="730,170 750,150 770,170 750,190" fill="url(#adminRelationGradient)" stroke="#eb2f96" stroke-width="2" filter="url(#shadow)" />
  <text x="750" y="175" font-family="Microsoft YaHei, 微软雅黑" font-size="14" text-anchor="middle">管理</text>
  <text x="750" y="145" font-family="Microsoft YaHei, 微软雅黑" font-size="10" text-anchor="middle" fill="#eb2f96">[role='admin']</text>
  
  <!-- 会员(管理员)-器材管理关系 -->
  <polygon points="330,340 350,320 370,340 350,360" fill="url(#adminRelationGradient)" stroke="#eb2f96" stroke-width="2" filter="url(#shadow)" />
  <text x="350" y="345" font-family="Microsoft YaHei, 微软雅黑" font-size="14" text-anchor="middle">管理</text>
  <text x="350" y="315" font-family="Microsoft YaHei, 微软雅黑" font-size="10" text-anchor="middle" fill="#eb2f96">[role='admin']</text>
  
  <!-- 会员(管理员)-商品管理关系 -->
  <polygon points="630,340 650,320 670,340 650,360" fill="url(#adminRelationGradient)" stroke="#eb2f96" stroke-width="2" filter="url(#shadow)" />
  <text x="650" y="345" font-family="Microsoft YaHei, 微软雅黑" font-size="14" text-anchor="middle">管理</text>
  <text x="650" y="315" font-family="Microsoft YaHei, 微软雅黑" font-size="10" text-anchor="middle" fill="#eb2f96">[role='admin']</text>
  
  <!-- 关系连线 -->
  <!-- 教练-课程关系连线 -->
  <line x1="300" y1="250" x2="350" y2="250" stroke="#52c41a" stroke-width="2" />
  <line x1="390" y1="250" x2="500" y2="250" stroke="#52c41a" stroke-width="2" />
  <text x="330" y="240" font-family="Microsoft YaHei, 微软雅黑" font-size="14" text-anchor="middle">1</text>
  <text x="460" y="240" font-family="Microsoft YaHei, 微软雅黑" font-size="14" text-anchor="middle">n</text>
  
  <!-- 课程-课程类别关系连线 -->
  <line x1="600" y1="250" x2="650" y2="250" stroke="#52c41a" stroke-width="2" />
  <line x1="690" y1="250" x2="800" y2="250" stroke="#52c41a" stroke-width="2" />
  <text x="630" y="240" font-family="Microsoft YaHei, 微软雅黑" font-size="14" text-anchor="middle">n</text>
  <text x="760" y="240" font-family="Microsoft YaHei, 微软雅黑" font-size="14" text-anchor="middle">1</text>
  
  <!-- 课程-课程排期关系连线 -->
  <line x1="550" y1="280" x2="570" y2="300" stroke="#52c41a" stroke-width="2" />
  <line x1="570" y1="340" x2="550" y2="400" stroke="#52c41a" stroke-width="2" />
  <text x="540" y="295" font-family="Microsoft YaHei, 微软雅黑" font-size="14" text-anchor="middle">1</text>
  <text x="540" y="380" font-family="Microsoft YaHei, 微软雅黑" font-size="14" text-anchor="middle">n</text>
  
  <!-- 课程排期-课程预约关系连线 -->
  <line x1="600" y1="430" x2="650" y2="430" stroke="#52c41a" stroke-width="2" />
  <line x1="690" y1="430" x2="800" y2="430" stroke="#52c41a" stroke-width="2" />
  <text x="630" y="420" font-family="Microsoft YaHei, 微软雅黑" font-size="14" text-anchor="middle">1</text>
  <text x="760" y="420" font-family="Microsoft YaHei, 微软雅黑" font-size="14" text-anchor="middle">n</text>
  
  <!-- 器材-器材类别关系连线 -->
  <line x1="250" y1="460" x2="270" y2="480" stroke="#52c41a" stroke-width="2" />
  <line x1="270" y1="520" x2="250" y2="580" stroke="#52c41a" stroke-width="2" />
  <text x="240" y="480" font-family="Microsoft YaHei, 微软雅黑" font-size="14" text-anchor="middle">n</text>
  <text x="240" y="560" font-family="Microsoft YaHei, 微软雅黑" font-size="14" text-anchor="middle">1</text>
  
  <!-- 商品-商品类别关系连线 -->
  <line x1="600" y1="610" x2="650" y2="610" stroke="#52c41a" stroke-width="2" />
  <line x1="690" y1="610" x2="800" y2="610" stroke="#52c41a" stroke-width="2" />
  <text x="630" y="600" font-family="Microsoft YaHei, 微软雅黑" font-size="14" text-anchor="middle">n</text>
  <text x="760" y="600" font-family="Microsoft YaHei, 微软雅黑" font-size="14" text-anchor="middle">1</text>
  
  <!-- 商品-商品交易关系连线 -->
  <line x1="550" y1="640" x2="570" y2="660" stroke="#52c41a" stroke-width="2" />
  <line x1="570" y1="700" x2="550" y2="760" stroke="#52c41a" stroke-width="2" />
  <text x="540" y="660" font-family="Microsoft YaHei, 微软雅黑" font-size="14" text-anchor="middle">1</text>
  <text x="540" y="740" font-family="Microsoft YaHei, 微软雅黑" font-size="14" text-anchor="middle">n</text>
  
  <!-- 会员-课程预约关系连线 -->
  <line x1="580" y1="160" x2="870" y2="300" stroke="#52c41a" stroke-width="2" stroke-dasharray="5,5" />
  <line x1="870" y1="340" x2="850" y2="400" stroke="#52c41a" stroke-width="2" />
  <text x="600" y="170" font-family="Microsoft YaHei, 微软雅黑" font-size="14" text-anchor="middle">1</text>
  <text x="840" y="380" font-family="Microsoft YaHei, 微软雅黑" font-size="14" text-anchor="middle">n</text>
  
  <!-- 会员-商品交易关系连线 -->
  <line x1="520" y1="160" x2="420" y2="740" stroke="#52c41a" stroke-width="2" stroke-dasharray="5,5" />
  <line x1="440" y1="760" x2="500" y2="790" stroke="#52c41a" stroke-width="2" />
  <text x="510" y="180" font-family="Microsoft YaHei, 微软雅黑" font-size="14" text-anchor="middle">1</text>
  <text x="480" y="770" font-family="Microsoft YaHei, 微软雅黑" font-size="14" text-anchor="middle">n</text>
  
  <!-- 管理关系连线 -->
  <!-- 会员-教练管理关系连线 -->
  <line x1="500" y1="130" x2="350" y2="150" stroke="#eb2f96" stroke-width="2" />
  <line x1="350" y1="190" x2="250" y2="220" stroke="#eb2f96" stroke-width="2" />
  <text x="470" y="130" font-family="Microsoft YaHei, 微软雅黑" font-size="12" text-anchor="middle">1</text>
  <text x="280" y="210" font-family="Microsoft YaHei, 微软雅黑" font-size="12" text-anchor="middle">n</text>
  
  <!-- 会员-课程管理关系连线 -->
  <line x1="510" y1="160" x2="440" y2="150" stroke="#eb2f96" stroke-width="2" />
  <line x1="440" y1="190" x2="520" y2="220" stroke="#eb2f96" stroke-width="2" />
  <text x="500" y="170" font-family="Microsoft YaHei, 微软雅黑" font-size="12" text-anchor="middle">1</text>
  <text x="500" y="210" font-family="Microsoft YaHei, 微软雅黑" font-size="12" text-anchor="middle">n</text>
  
  <!-- 会员-课程类别管理关系连线 -->
  <line x1="600" y1="130" x2="750" y2="150" stroke="#eb2f96" stroke-width="2" />
  <line x1="750" y1="190" x2="840" y2="220" stroke="#eb2f96" stroke-width="2" />
  <text x="630" y="130" font-family="Microsoft YaHei, 微软雅黑" font-size="12" text-anchor="middle">1</text>
  <text x="810" y="210" font-family="Microsoft YaHei, 微软雅黑" font-size="12" text-anchor="middle">n</text>
  
  <!-- 会员-器材管理关系连线 -->
  <line x1="500" y1="140" x2="350" y2="320" stroke="#eb2f96" stroke-width="2" />
  <line x1="350" y1="360" x2="250" y2="400" stroke="#eb2f96" stroke-width="2" />
  <text x="480" y="150" font-family="Microsoft YaHei, 微软雅黑" font-size="12" text-anchor="middle">1</text>
  <text x="270" y="390" font-family="Microsoft YaHei, 微软雅黑" font-size="12" text-anchor="middle">n</text>
  
  <!-- 会员-商品管理关系连线 -->
  <line x1="580" y1="160" x2="650" y2="320" stroke="#eb2f96" stroke-width="2" />
  <line x1="650" y1="360" x2="550" y2="580" stroke="#eb2f96" stroke-width="2" />
  <text x="590" y="170" font-family="Microsoft YaHei, 微软雅黑" font-size="12" text-anchor="middle">1</text>
  <text x="560" y="560" font-family="Microsoft YaHei, 微软雅黑" font-size="12" text-anchor="middle">n</text>
  
  <!-- 图例 -->
  <rect x="950" y="100" width="80" height="40" rx="5" ry="5" fill="url(#entityGradient)" stroke="#fa8c16" stroke-width="2" />
  <text x="990" y="125" font-family="Microsoft YaHei, 微软雅黑" font-size="14" text-anchor="middle">实体</text>
  
  <polygon points="965,170 990,145 1015,170 990,195" fill="url(#relationGradient)" stroke="#52c41a" stroke-width="2" />
  <text x="990" y="175" font-family="Microsoft YaHei, 微软雅黑" font-size="14" text-anchor="middle">关系</text>
  
  <polygon points="965,240 990,215 1015,240 990,265" fill="url(#adminRelationGradient)" stroke="#eb2f96" stroke-width="2" />
  <text x="990" y="245" font-family="Microsoft YaHei, 微软雅黑" font-size="14" text-anchor="middle">管理关系</text>
  <text x="990" y="265" font-family="Microsoft YaHei, 微软雅黑" font-size="10" text-anchor="middle" fill="#eb2f96">[role='admin']</text>
  
  <text x="990" y="310" font-family="Microsoft YaHei, 微软雅黑" font-size="14" text-anchor="middle">基数约束</text>
  <text x="990" y="335" font-family="Microsoft YaHei, 微软雅黑" font-size="14" text-anchor="middle">1: 一  n: 多</text>
</svg>